<svg id="Layer_1" data-name="Layer 1" xmlns="http://www.w3.org/2000/svg" viewBox="0 0 550.72 550.72"><defs><style>.cls-1{fill:#c2c1c0;}.cls-2{fill:#555d67;}.cls-3{fill:#ffcf56;}.cls-4{fill:#444a54;}.cls-5{fill:#666e79;}.cls-6{fill:#f5bb42;}.cls-7{fill:#fbb03c;}.cls-8,.cls-9{fill:#fff;}.cls-9{font-size:21.23px;font-family:Arial-BoldMT, Arial;font-weight:700;}.cls-10{letter-spacing:-0.02em;}</style></defs><circle class="cls-1" cx="275.36" cy="275.36" r="275.36"/><path class="cls-2" d="M150.28,430.64v61.64s120.07,112.94,283.1,0v-51.8Z" transform="translate(-24.28 -124.23)"/><polygon class="cls-3" points="497.25 313.63 489.62 352.69 490.52 353.99 491.22 355.1 522.44 355.1 523.35 353.59 523.85 351.38 521.34 339.64 515.37 308.79 497.25 308.79 497.25 313.63"/><polygon class="cls-4" points="127.61 244.57 126.07 276.79 258.32 317.75 341.44 311.43 375.78 290.95 409.11 274.38 409.11 244.57 389.63 249.69 356.8 257.52 306.21 268.36 275.79 274.38 267.56 275.59 259.07 274.99 236.94 267.76 197.64 261.43 155.62 251.5 127.61 244.57"/><polygon class="cls-2" points="126.01 272.48 126.57 313.63 127.01 346.36 170.38 350.78 178.81 350.78 211.14 353.59 273.78 354.8 299.28 354.8 326.18 353.59 367.75 350.58 403.48 347.17 409.11 346.36 409.11 272.48 303.5 295.77 267.56 302.99 237.24 294.56 198.69 289.14 154.72 278.3 126.01 272.48"/><polygon class="cls-5" points="26.87 225.46 238.98 271.23 267.56 278.6 443.39 238.48 498.5 227.79 490.37 218.96 276.24 170.88 260.88 170.88 230.61 178.99 30.49 221.75 26.87 225.46"/><path class="cls-6" d="M308.42,344l27.18-1.59,88.4.8H533.92l1.81,2.59a7.48,7.48,0,0,1,.75,2.41c0,.91-1.35,69.57-1.35,69.57h-8.89l.1-66.41L315,351.66l-6.59-4.14Z" transform="translate(-24.28 -124.23)"/><path class="cls-2" d="M277.7,340.27l5.05-1.13h8l12.35-.45,7.53,1.58,3.55,2,1.79,1,3.84,3.39-2.56,3.54-3.39,2.33-3.61,2-4.89.52H289.22l-9.33-.75-6.55-1.2-5.88-2.71-2.18-3.51,2.18-3.42s2.64-1.66,3.09-1.81,4.44-.75,4.44-.75Z" transform="translate(-24.28 -124.23)"/><polygon class="cls-5" points="497.25 310.62 515.92 310.62 515.92 295.77 512.2 293.51 506.58 293.51 500.66 293.51 498.5 294.76 497.25 297.77 497.25 303.19 497.25 310.62"/><path class="cls-7" d="M203.92,463.16v2.18l-2.85.62,1.43-6.65h3.24l-.17,6.53a18.31,18.31,0,0,1-8.92,2.16c-8.18,0-14.75-4.82-14.75-14.74s7.07-14.74,15-14.74a16.56,16.56,0,0,1,8.32,2.1l.17,6.58H202.2l-1.46-6.71,2.85.65v2.35c-2-1.82-3.73-2.57-5.64-2.57-4.54,0-8.53,3.69-8.53,12.37s3.83,12.28,8.32,12.28A10.21,10.21,0,0,0,203.92,463.16Z" transform="translate(-24.28 -124.23)"/><path class="cls-8" d="M229.65,456.76c0,7.6-5.27,10.91-10.23,10.91-5.57,0-9.86-4.07-9.86-10.57,0-6.88,4.5-10.91,10.2-10.91C225.66,446.19,229.65,450.48,229.65,456.76Zm-16.31.21c0,4.5,2.59,7.9,6.25,7.9s6.24-3.35,6.24-8c0-3.48-1.74-7.9-6.16-7.9S213.34,453.07,213.34,457Z" transform="translate(-24.28 -124.23)"/><path class="cls-8" d="M235.42,452.22c0-2.13,0-3.87-.17-5.57h3.27l.17,3.32h.13a7.08,7.08,0,0,1,6.46-3.78,6.07,6.07,0,0,1,5.81,4.12h.09a8.51,8.51,0,0,1,2.29-2.68,7,7,0,0,1,4.55-1.44c2.71,0,6.75,1.78,6.75,8.91v12.11h-3.65V455.57c0-3.95-1.45-6.33-4.46-6.33a4.85,4.85,0,0,0-4.42,3.4,6.16,6.16,0,0,0-.3,1.87v12.7h-3.65V454.89c0-3.27-1.44-5.65-4.29-5.65a5.12,5.12,0,0,0-4.63,3.74,5.21,5.21,0,0,0-.29,1.83v12.4h-3.66Z" transform="translate(-24.28 -124.23)"/><path class="cls-8" d="M271.9,453.36c0-2.63-.08-4.75-.17-6.71h3.36l.17,3.53h.08a8.08,8.08,0,0,1,7.31-4c5,0,8.7,4.2,8.7,10.44,0,7.39-4.5,11-9.34,11a7.2,7.2,0,0,1-6.33-3.22h-.08v11.17h-3.7Zm3.7,5.48a8,8,0,0,0,.17,1.53,5.76,5.76,0,0,0,5.6,4.37c3.95,0,6.24-3.22,6.24-7.94,0-4.12-2.16-7.64-6.11-7.64a6,6,0,0,0-5.65,4.63,5.9,5.9,0,0,0-.25,1.53Z" transform="translate(-24.28 -124.23)"/><path class="cls-8" d="M314.32,461.6c0,2.12.05,4,.17,5.61h-3.31l-.21-3.36h-.09a7.71,7.71,0,0,1-6.79,3.82c-3.23,0-7.09-1.78-7.09-9v-12h3.73V458c0,3.91,1.19,6.54,4.59,6.54a5.41,5.41,0,0,0,4.93-3.39,5.55,5.55,0,0,0,.34-1.91V446.65h3.73Z" transform="translate(-24.28 -124.23)"/><path class="cls-7" d="M320.92,441.71l3.07-2.4-1.11,7.89h-3.55l.16-7.89h24.93l.13,7.89H341l-1.12-7.89,3.05,2.4Zm11.91,22.58,6.4.64v2.28H324.68v-2.28l6.28-.64Zm-4.45-11.82c0-4.37,0-8.79-.13-13.16h7.38c-.12,4.29-.12,8.7-.12,13.16V454c0,4.41,0,8.82.12,13.2h-7.38c.13-4.29.13-8.71.13-13.17Z" transform="translate(-24.28 -124.23)"/><path class="cls-8" d="M351.65,457.61c.08,5.05,3.31,7.13,7.05,7.13a13.44,13.44,0,0,0,5.69-1.06l.64,2.68a16.77,16.77,0,0,1-6.84,1.27c-6.33,0-10.11-4.16-10.11-10.36s3.65-11.08,9.64-11.08c6.71,0,8.49,5.9,8.49,9.68a15,15,0,0,1-.12,1.74Zm11-2.68c0-2.37-1-6.07-5.19-6.07-3.77,0-5.43,3.48-5.73,6.07Z" transform="translate(-24.28 -124.23)"/><path class="cls-8" d="M386.55,466.44a13.72,13.72,0,0,1-5.9,1.19c-6.2,0-10.23-4.2-10.23-10.49s4.33-10.91,11-10.91a12.48,12.48,0,0,1,5.18,1.06l-.85,2.89a8.64,8.64,0,0,0-4.33-1c-4.71,0-7.26,3.48-7.26,7.77,0,4.76,3.05,7.69,7.13,7.69a10.56,10.56,0,0,0,4.59-1Z" transform="translate(-24.28 -124.23)"/><path class="cls-8" d="M392,437.06h3.74v12.82h.08a7,7,0,0,1,2.68-2.63,7.64,7.64,0,0,1,3.82-1.06c2.76,0,7.18,1.7,7.18,8.79v12.23h-3.74V455.4c0-3.31-1.23-6.11-4.76-6.11a5.37,5.37,0,0,0-5,3.73,4.58,4.58,0,0,0-.25,1.79v12.4H392Z" transform="translate(-24.28 -124.23)"/><text class="cls-9" transform="translate(223.7 374.12)">ACADEM<tspan class="cls-10" x="82.24" y="0">Y</tspan></text><polygon class="cls-4" points="409.11 244.57 409.11 280.11 271.72 306.4 126.07 276.79 127.61 244.57 267.56 278.6 409.11 244.57"/></svg>